<svg version="1.1" id="Layer_1" xmlns="http://www.w3.org/2000/svg" xmlns:xlink="http://www.w3.org/1999/xlink" x="0px" y="0px" viewBox="0 0 217.3 299.3" style="enable-background:new 0 0 217.3 299.3;" xml:space="preserve">
 <g>
  <polygon points="217.3,217.3 217.3,160.4 97.5,160.4 217.3,40.6 176.7,0 56.9,119.8 56.9,0 0,0 0,217.3 	">
  </polygon>
  <g>
   <path d="M23.1,232.3c15,0,23.3,9,23.3,22.1v1.8h-15V255c0-6.6-3-10.2-9-10.2s-6.6,1.8-6.6,5.4s1.8,4.8,4.8,6l9.6,3
			c10.8,3.6,16.1,8.4,16.1,19.1s-9.6,20.3-22.7,20.3s-23.3-8.4-23.3-22.1v-1.8h14.4v1.2c0,6.6,3.6,10.2,9.6,10.2s7.2-1.8,7.2-6
			c0-4.2-1.8-4.8-5.4-6l-10.2-3c-8.4-3-15-7.8-15-19.1C1,240.7,9.4,232.3,23.1,232.3z">
   </path>
   <path d="M79.9,264l18.5,32.9H81.7L71,277.8l-10.2,19.7H44.1l18.5-32.9l-17.3-31.1h17.3l9.6,17.9l9.6-17.9h16.1L79.9,264z">
   </path>
   <path d="M119.4,232.3c15,0,23.3,9,23.3,22.1v1.8h-14.4V255c0-6.6-3-10.2-9-10.2c-6,0-6.6,2.4-6.6,6c0,3.6,1.8,4.8,4.8,6l9.6,3
			c10.8,3.6,16.1,8.4,16.1,19.1c0,10.8-9.6,20.3-22.7,20.3s-23.9-8.4-23.9-22.1v-2.4H111v1.2c0,6.6,3.6,10.2,9.6,10.2s7.2-1.8,7.2-6
			c0-4.2-1.8-4.8-5.4-6l-9.6-3c-9-3-15-7.8-15-19.1C97.9,240.7,105.6,232.3,119.4,232.3z">
   </path>
   <path d="M187.6,233.5l6,41.3h0.6l6.6-41.3h15l-12,63.4h-17.9l-6-40.7h-0.6l-6,40.7h-17.3l-12-63.4h16.1l6.6,41.3h0.6l6-41.3H187.6
			z">
   </path>
   <path d="M213.1,298.1c-1.9,0-3.5-1.6-3.5-3.5s1.6-3.5,3.5-3.5s3.5,1.6,3.5,3.5S215,298.1,213.1,298.1z M213.1,292.1
			c-1.5,0-2.6,1.1-2.6,2.6s1.1,2.6,2.6,2.6s2.6-1.1,2.6-2.6S214.6,292.1,213.1,292.1z M214,296.4h-1.7v-3.5h1.7V296.4z M213.1,294.7
			L213.1,294.7z">
   </path>
  </g>
 </g>
</svg>